<svg width="24" height="24" viewBox="0 0 24 24" fill="none" xmlns="http://www.w3.org/2000/svg">
<path d="M15.87 13.616C15.2513 13.616 14.724 13.3993 14.288 12.966C13.852 12.5327 13.634 12.007 13.634 11.389C13.634 10.771 13.8507 10.244 14.284 9.808C14.7173 9.372 15.243 9.154 15.861 9.154C16.479 9.154 17.006 9.37067 17.442 9.804C17.878 10.2373 18.096 10.7627 18.096 11.38C18.096 11.9973 17.8793 12.5247 17.446 12.962C17.0127 13.3993 16.4873 13.6173 15.87 13.616ZM10.635 18.846V17.716C10.635 17.498 10.6893 17.2907 10.798 17.094C10.9067 16.8973 11.0533 16.739 11.238 16.619C11.9373 16.2203 12.6707 15.915 13.438 15.703C14.2047 15.491 15.014 15.385 15.866 15.385C16.7167 15.385 17.5257 15.491 18.293 15.703C19.0603 15.915 19.7937 16.2203 20.493 16.619C20.677 16.7383 20.8237 16.8967 20.933 17.094C21.0423 17.2913 21.0967 17.4987 21.096 17.716V18.846H10.635ZM11.669 17.539V17.846H20.062V17.539C19.402 17.167 18.718 16.8817 18.01 16.683C17.302 16.4843 16.5873 16.385 15.866 16.385C15.144 16.385 14.429 16.4843 13.721 16.683C13.0137 16.8817 12.3297 17.167 11.669 17.539ZM15.866 12.616C16.2 12.616 16.4887 12.4943 16.732 12.251C16.9753 12.0077 17.0967 11.719 17.096 11.385C17.0953 11.051 16.974 10.762 16.732 10.518C16.49 10.274 16.2013 10.1527 15.866 10.154C15.5307 10.1553 15.2417 10.2767 14.999 10.518C14.7563 10.7593 14.635 11.0483 14.635 11.385C14.635 11.7217 14.7563 12.0103 14.999 12.251C15.2417 12.4917 15.5307 12.6133 15.866 12.616ZM3.88499 13.5V12.5H10.885V13.5H3.88499ZM3.88499 5.5V4.5H14.885V5.5H3.88499ZM11.696 9.5H3.88499V8.5H12.269C12.151 8.65533 12.0437 8.813 11.947 8.973C11.8503 9.133 11.766 9.30867 11.696 9.5Z" fill="white"/>
</svg>
