<svg width="24" height="24" viewBox="0 0 24 24" fill="none" xmlns="http://www.w3.org/2000/svg">
<path d="M10.135 21L9.773 18.108C9.45366 18.0113 9.10866 17.86 8.738 17.654C8.36666 17.4473 8.051 17.226 7.791 16.99L5.123 18.125L3.258 14.875L5.564 13.136C5.534 12.956 5.50966 12.77 5.491 12.578C5.471 12.386 5.461 12.1997 5.461 12.019C5.461 11.851 5.471 11.6743 5.491 11.489C5.50966 11.3037 5.534 11.095 5.564 10.863L3.258 9.126L5.123 5.914L7.771 7.03C8.06966 6.78133 8.393 6.557 8.741 6.357C9.08766 6.157 9.42533 6.00233 9.754 5.893L10.134 3H13.866L14.227 5.912C14.6103 6.04667 14.949 6.201 15.243 6.375C15.537 6.549 15.84 6.767 16.152 7.029L18.877 5.914L20.742 9.125L18.36 10.921C18.4147 11.1277 18.4453 11.3173 18.452 11.49C18.4587 11.6627 18.462 11.8327 18.462 12C18.462 12.1553 18.4553 12.319 18.442 12.491C18.4293 12.6637 18.4 12.8723 18.354 13.117L20.698 14.875L18.833 18.125L16.152 16.971C15.8407 17.233 15.5273 17.4573 15.212 17.644C14.8967 17.8307 14.5683 17.979 14.227 18.089L13.866 21H10.135ZM11 20H12.956L13.325 17.292C13.829 17.1587 14.2823 16.9757 14.685 16.743C15.089 16.5103 15.4997 16.1917 15.917 15.787L18.412 16.85L19.406 15.15L17.217 13.506C17.3003 13.2213 17.3557 12.9593 17.383 12.72C17.4097 12.4813 17.423 12.2413 17.423 12C17.423 11.7467 17.4097 11.5067 17.383 11.28C17.3563 11.0533 17.301 10.8043 17.217 10.533L19.444 8.85L18.45 7.15L15.898 8.22C15.5953 7.88733 15.1977 7.57567 14.705 7.285C14.2117 6.995 13.745 6.80267 13.305 6.708L13 4H11.006L10.694 6.689C10.19 6.79633 9.72666 6.96967 9.304 7.209C8.882 7.44767 8.462 7.776 8.044 8.194L5.55 7.15L4.556 8.85L6.725 10.47C6.64166 10.694 6.58333 10.9373 6.55 11.2C6.51666 11.4627 6.5 11.736 6.5 12.02C6.5 12.2733 6.51666 12.525 6.55 12.775C6.58333 13.025 6.63533 13.2683 6.706 13.505L4.556 15.15L5.55 16.85L8.025 15.8C8.41766 16.196 8.825 16.5137 9.247 16.753C9.66966 16.9923 10.1457 17.1787 10.675 17.312L11 20ZM11.973 14.5C12.6703 14.5 13.2613 14.2577 13.746 13.773C14.2307 13.2883 14.473 12.6973 14.473 12C14.473 11.3027 14.2307 10.7117 13.746 10.227C13.2613 9.74233 12.6703 9.5 11.973 9.5C11.2717 9.5 10.6797 9.74233 10.197 10.227C9.71433 10.7117 9.473 11.3027 9.473 12C9.473 12.6973 9.71433 13.2883 10.197 13.773C10.6797 14.2577 11.2717 14.5 11.973 14.5Z" fill="white"/>
</svg>
